<?xml version="1.0" encoding="utf-8"?>
<!-- Generator: Adobe Illustrator 21.0.0, SVG Export Plug-In . SVG Version: 6.00 Build 0)  -->
<svg version="1.1" id="Layer_1" xmlns="http://www.w3.org/2000/svg" xmlns:xlink="http://www.w3.org/1999/xlink" x="0px" y="0px"
	 viewBox="0 0 216 216" style="enable-background:new 0 0 216 216;" xml:space="preserve">
<style type="text/css">
	.st0{fill:#D30010;stroke:#BE1E2D;stroke-miterlimit:10;}
	.st1{fill:#006838;}
	.st2{fill:#ED1C24;}
	.st3{fill:#FAC6C7;}
</style>
<ellipse class="st0" cx="97.1" cy="129.5" rx="74.7" ry="67.2"/>
<g>
	<g>
		<path class="st1" d="M85.5,61.6c-5.8,1.5-12,4.3-15,9.8c-0.7,1.3,0.7,3.7,0,5c3-5.5,9.2-8.3,15-9.8C86,66.5,85.2,61.7,85.5,61.6
			L85.5,61.6z"/>
	</g>
</g>
<g>
	<g>
		<path class="st1" d="M84.3,65.3c2.6,2.8,4.9,5.8,7,9c-0.3-0.4,0-2,0-2.5c0-0.6,0.3-2,0-2.5c-2.1-3.2-4.4-6.2-7-9
			c0.2,0.3,0,2.1,0,2.5C84.3,63.3,84,65,84.3,65.3L84.3,65.3z"/>
	</g>
</g>
<g>
	<g>
		<path class="st1" d="M87.6,65.6c5.4,2.1,9.8,5.8,13.1,10.6c-0.8-1.1,0.8-3.8,0-5c-3.3-4.8-7.7-8.4-13.1-10.6
			C88.1,60.8,87,65.3,87.6,65.6L87.6,65.6z"/>
	</g>
</g>
<g>
	<g>
		<path class="st1" d="M85.5,61.9c-8.7-6.1-18.6-10.1-28.8-13.1c-1.1-0.3,0.1,4.1,1.6,4.6c10,2.9,19.6,6.8,28.1,12.8
			C87.9,67.2,86.6,62.7,85.5,61.9L85.5,61.9z"/>
	</g>
</g>
<g>
	<g>
		<path class="st1" d="M88.9,65c0-9,0-17.9,0-26.9c0-0.6-4.8,0.1-4.8,1.4c0,9,0,17.9,0,26.9C84.1,67,88.9,66.3,88.9,65L88.9,65z"/>
	</g>
</g>
<g>
	<g>
		<path class="st1" d="M90.3,63.6c9.9-8.9,24.1-12,37.1-12.9c0,0-2.8-2.5-4.2-2.4c-13.1,0.9-27.3,4.2-37.4,13.1
			C85.5,61.6,89.3,64.5,90.3,63.6L90.3,63.6z"/>
	</g>
</g>
<g>
	<path class="st2" d="M123.4,85.8c2.9-0.4,5.8,1.2,7.7,3.4c1.9,2.2,1.9,2.2,4.1,7.7c1.3,3.1-1.2-3.1,0,0"/>
	<g>
		<path class="st3" d="M123.3,87.6c5.9-0.5,8.1,6.9,9.9,11c0.9,2.1,5.6,0.5,4.7-1.7c-0.2-0.6-0.5-1.2-0.7-1.8
			c-0.9-2.1-5.5-0.5-4.7,1.7c0.1,0.3,0.2,0.6,0.4,0.9c0.9,2.1,5.6,0.4,4.7-1.7c-0.1-0.3-0.2-0.6-0.4-0.9c-1.6,0.6-3.1,1.1-4.7,1.7
			c0.2,0.6,0.5,1.2,0.7,1.8c1.6-0.6,3.1-1.1,4.7-1.7c-1.1-2.6-1.9-5.4-3.6-7.7c-2.7-3.5-6.3-5.6-10.8-5.2
			C120.7,84.3,120.1,87.8,123.3,87.6L123.3,87.6z"/>
	</g>
</g>
</svg>
