<?xml version="1.0" encoding="utf-8"?>
<!-- Generator: Adobe Illustrator 21.0.0, SVG Export Plug-In . SVG Version: 6.00 Build 0)  -->
<svg version="1.1" id="Layer_1" xmlns="http://www.w3.org/2000/svg" xmlns:xlink="http://www.w3.org/1999/xlink" x="0px" y="0px"
	 viewBox="0 0 20 300" style="enable-background:new 0 0 20 300;" xml:space="preserve">
<style type="text/css">
	.st0{fill:#F4BC1E;stroke:#231F20;stroke-miterlimit:10;}
	.st1{fill:none;stroke:#231F20;stroke-width:0.5;stroke-miterlimit:10;}
</style>
<rect y="4.8" class="st0" width="20" height="290.3"/>
<line class="st1" x1="10" y1="19.8" x2="20" y2="19.3"/>
<line class="st1" x1="10" y1="12.8" x2="20" y2="12.3"/>
<line class="st1" x1="10" y1="33.8" x2="20" y2="33.3"/>
<line class="st1" x1="10" y1="26.8" x2="20" y2="26.3"/>
<line class="st1" x1="10" y1="46.8" x2="20" y2="46.3"/>
<line class="st1" x1="10" y1="39.8" x2="20" y2="39.3"/>
<line class="st1" x1="10" y1="60.8" x2="20" y2="60.3"/>
<line class="st1" x1="10" y1="53.8" x2="20" y2="53.3"/>
<line class="st1" x1="10" y1="74.8" x2="20" y2="74.3"/>
<line class="st1" x1="10" y1="67.8" x2="20" y2="67.3"/>
<line class="st1" x1="10" y1="88.8" x2="20" y2="88.3"/>
<line class="st1" x1="10" y1="81.8" x2="20" y2="81.3"/>
<line class="st1" x1="10" y1="101.8" x2="20" y2="101.3"/>
<line class="st1" x1="10" y1="94.8" x2="20" y2="94.3"/>
<line class="st1" x1="10" y1="115.8" x2="20" y2="115.3"/>
<line class="st1" x1="10" y1="108.8" x2="20" y2="108.3"/>
<line class="st1" x1="10" y1="129.8" x2="20" y2="129.3"/>
<line class="st1" x1="10" y1="122.8" x2="20" y2="122.3"/>
<line class="st1" x1="10" y1="143.8" x2="20" y2="143.3"/>
<line class="st1" x1="10" y1="136.8" x2="20" y2="136.3"/>
<line class="st1" x1="10" y1="156.8" x2="20" y2="156.3"/>
<line class="st1" x1="10" y1="149.8" x2="20" y2="149.3"/>
<line class="st1" x1="10" y1="170.8" x2="20" y2="170.3"/>
<line class="st1" x1="10" y1="163.8" x2="20" y2="163.3"/>
<line class="st1" x1="10" y1="184.8" x2="20" y2="184.3"/>
<line class="st1" x1="10" y1="177.8" x2="20" y2="177.3"/>
<line class="st1" x1="10" y1="198.8" x2="20" y2="198.3"/>
<line class="st1" x1="10" y1="191.8" x2="20" y2="191.3"/>
<line class="st1" x1="10" y1="211.8" x2="20" y2="211.3"/>
<line class="st1" x1="10" y1="204.8" x2="20" y2="204.3"/>
<line class="st1" x1="10" y1="225.8" x2="20" y2="225.3"/>
<line class="st1" x1="10" y1="218.8" x2="20" y2="218.3"/>
<line class="st1" x1="10" y1="239.8" x2="20" y2="239.3"/>
<line class="st1" x1="10" y1="232.8" x2="20" y2="232.3"/>
<line class="st1" x1="10" y1="253.8" x2="20" y2="253.3"/>
<line class="st1" x1="10" y1="246.8" x2="20" y2="246.3"/>
<line class="st1" x1="10" y1="266.8" x2="20" y2="266.3"/>
<line class="st1" x1="10" y1="259.8" x2="20" y2="259.3"/>
<line class="st1" x1="10" y1="280.8" x2="20" y2="280.3"/>
<line class="st1" x1="10" y1="273.8" x2="20" y2="273.3"/>
<line class="st1" x1="10" y1="287.8" x2="20" y2="287.3"/>
</svg>
