<?xml version="1.0" encoding="utf-8"?>
<!-- Generator: Adobe Illustrator 21.0.0, SVG Export Plug-In . SVG Version: 6.00 Build 0)  -->
<svg version="1.1" id="Layer_1" xmlns="http://www.w3.org/2000/svg" xmlns:xlink="http://www.w3.org/1999/xlink" x="0px" y="0px"
	 viewBox="0 0 300 250" style="enable-background:new 0 0 300 250;" xml:space="preserve">
<style type="text/css">
	.st0{fill:#231F20;}
	.st1{font-family:'NewsCycle';}
	.st2{font-size:11px;}
	.st3{fill:#00A14B;}
	.st4{fill:#414042;}
	.st5{fill:#414042;stroke:#414042;stroke-miterlimit:10;}
	.st6{fill:#F26522;}
	.st7{fill:none;}
	.st8{fill:none;stroke:#F26522;stroke-miterlimit:10;}
	.st9{fill:#F26522;stroke:#F26522;stroke-miterlimit:10;}
	.st10{fill:none;stroke:#7F3F98;stroke-miterlimit:10;}
	.st11{fill:#7F3F98;}
	.st12{fill:none;stroke:#414042;stroke-miterlimit:10;}
	.st13{fill:none;stroke:#00A14B;stroke-miterlimit:10;}
	.st14{fill:#232424;}
	.st15{fill:#FFFFFF;stroke:#F26522;stroke-miterlimit:10;}
	.st16{font-family:'ArialMT';}
	.st17{font-size:11.7914px;}
	.st18{font-size:6.8266px;}
</style>
<text transform="matrix(1 0 0 1 22.8926 161.3965)" class="st0 st1 st2">Recycling</text>
<text transform="matrix(1 0 0 1 86.9056 201.7245)" class="st0 st1 st2">Repair</text>
<text transform="matrix(1 0 0 1 238.9909 217.4026)" class="st0 st1 st2">Landfill</text>
<text transform="matrix(1 0 0 1 194.6886 162.1401)" class="st0 st1 st2">Use</text>
<text transform="matrix(1 0 0 1 252.1651 64.9846)" class="st0 st1 st2">Retail</text>
<text transform="matrix(1 0 0 1 135.3431 66.9845)" class="st0 st1 st2">Transportation</text>
<text transform="matrix(1 0 0 1 20.1637 106.6309)" class="st0 st1 st2">Manufacturing</text>
<text transform="matrix(1 0 0 1 67.4201 36.5358)" class="st0 st1 st2">Mining</text>
<g>
	<path class="st3" d="M124.8,161.3h6.3l-0.7,0.7l0.6,0.9h-2.3c-1.2,0-1.2,1.8,0,1.8h3.6l0.9,1.3h-9.3v29.3h20.2v-16.7
		c0.1,0.1,0.2,0.1,0.4,0.2c0.2,0.5,0.5,1,0.9,1.4l0.6,0.6v18.4c0,1.7-1.4,3.1-3.1,3.1H125c-1.7,0-3.1-1.4-3.1-3.1v-34.7
		C121.7,162.7,123.1,161.3,124.8,161.3z M146.9,176.5l1.6-1.6c0.5-0.5,1.4-0.5,2,0l3.9,3.9c0.5,0.5,0.5,1.4,0,2l-1.6,1.6
		c-0.6,0.6-1.5,0.6-2,0l-3.9-3.9C146.3,177.9,146.3,177,146.9,176.5z M147.1,166c-1.4-3.5,2.1-6.9,5.6-5.5l-1.6,1.6
		c-1.6,1.6,0.9,4,2.4,2.4l1.6-1.6c1.4,3.5-2.1,6.9-5.6,5.6l-3.9,3.9l0.9,0.9l0.6-0.6c0.3-0.3,0.9-0.3,1.2,0l0,0
		c0.3,0.3,0.3,0.9,0,1.2l-2.4,2.4c-0.3,0.3-0.9,0.3-1.2,0l0,0c-0.3-0.4-0.3-0.9,0-1.2l0.7-0.7l-0.9-0.9l-4,4
		c1.4,3.5-2.1,6.9-5.6,5.6l1.6-1.6c1.6-1.6-0.8-4-2.4-2.4l-1.6,1.6c-1.4-3.5,2.1-6.9,5.6-5.6l4-4L138,167l-1.8-0.8l-2.8-3.8l1.1-1.1
		l3.8,2.7l0.8,1.8l4.1,4.1L147.1,166z M138.7,161.3h3.9c0.9,0,1.6,0.3,2.2,0.9c-0.4,0.9-0.5,2-0.4,3l-0.8,0.8h-0.9l-1.6-1.6l-0.9-2
		L138.7,161.3z M131.9,196.9h3.7c2.6,0,2.6,3.9,0,3.9h-3.7C129.3,200.7,129.3,196.9,131.9,196.9z"/>
</g>
<path class="st3" d="M94.1,125.7h-8.6c-0.2,0-0.4,0.1-0.5,0.3l-6,10.3c-0.2,0.3-0.1,0.7,0.2,0.8l6.5,3.7c0.3,0.2,0.6,0.1,0.8-0.2
	l8.1-14.1c0.2-0.3,0.1-0.7-0.2-0.8C94.3,125.7,94.2,125.7,94.1,125.7 M92.9,139.2l-0.2,0.1c-0.3,0.2-0.4,0.5-0.2,0.8
	c0.1,0.1,0.2,0.2,0.4,0.3l6.9,1.6c0.3,0.1,0.6-0.1,0.7-0.4l2.1-6.8c0.1-0.3-0.1-0.7-0.4-0.7c-0.2,0-0.3,0-0.5,0.1l-0.8,0.4l-4-6.9
	c-0.2-0.3-0.5-0.4-0.8-0.2c-0.1,0.1-0.2,0.1-0.2,0.2l-4.3,7.5c-0.1,0.2-0.1,0.4,0,0.6l1.6,2.7C93.2,138.7,93.1,139.1,92.9,139.2
	 M106.7,160.1l4.3-7.4c0.1-0.2,0.1-0.4,0-0.6l-6-10.3c-0.2-0.3-0.5-0.4-0.8-0.2l-6.5,3.7c-0.3,0.2-0.4,0.5-0.2,0.8l0,0l8.1,14
	c0.2,0.3,0.5,0.4,0.8,0.2C106.6,160.2,106.7,160.2,106.7,160.1 M95.6,152.3V152c0-0.3-0.3-0.6-0.6-0.6c-0.2,0-0.3,0.1-0.4,0.2
	l-4.9,5.2c-0.2,0.2-0.2,0.6,0,0.8l4.9,5.2c0.2,0.2,0.6,0.2,0.8,0c0.1-0.1,0.2-0.3,0.2-0.4v-0.9h8c0.3,0,0.6-0.3,0.6-0.6
	c0-0.1,0-0.2-0.1-0.3l-4.3-7.5c-0.1-0.2-0.3-0.3-0.5-0.3h-3.1C95.9,152.9,95.6,152.6,95.6,152.3L95.6,152.3 M87.9,161v-7.5
	c0-0.3-0.3-0.6-0.6-0.6l0,0H71.1c-0.3,0-0.6,0.3-0.6,0.6c0,0.1,0,0.2,0.1,0.3l4.3,7.5c0.1,0.2,0.3,0.3,0.5,0.3h11.9
	C87.7,161.6,87.9,161.3,87.9,161 M71.4,151.3H80c0.2,0,0.4-0.1,0.5-0.3l1.6-2.7c0.2-0.3,0.5-0.4,0.8-0.2l0,0l0.2,0.1
	c0.3,0.2,0.7,0.1,0.8-0.2c0.1-0.1,0.1-0.3,0.1-0.5l-2.1-6.8c-0.1-0.3-0.4-0.5-0.7-0.4l-6.9,1.6c-0.3,0.1-0.5,0.4-0.4,0.7
	c0,0.2,0.1,0.3,0.3,0.4l0.8,0.4l-4,6.9c-0.2,0.3-0.1,0.7,0.2,0.8C71.2,151.3,71.3,151.3,71.4,151.3"/>
<path class="st4" d="M233,203.1c0.1-0.4-0.2-0.8-0.6-0.9c-0.4-0.1-0.8,0.2-0.9,0.6c-0.2,1.3-0.6,2.6-0.9,3.8
	c-0.5-0.8-1.1-1.5-1.8-2.2l0,0l-1.6,3.6c-0.2,0.5-0.8,0.7-1.2,0.5c0,0,0,0-0.1,0l-0.4-0.2l-1-0.4c-0.4-0.2-0.6-0.5-0.6-0.9
	c0-0.1,0-0.3,0.1-0.4l1.9-4.2c-0.9-0.4-1.9-0.8-3-0.9c-0.5-1.6-1.4-3-2.6-4.1c1.3-0.8,2.3-1.2,2.8-0.8c0.3,0.3,0.8,0.2,1.1-0.1
	s0.2-0.8-0.1-1.1c-1.1-0.9-3-0.2-4.9,1c-1.7-1.2-3.8-1.9-6-1.9c-0.6,0-1.1,0.1-1.6,0.1v-0.1c0-3.5-2.8-6.3-6.3-6.3
	c-2.5,0-4.6,1.4-5.6,3.5c-1.1-0.3-2.3-0.4-3.5-0.4c-3.3,0-6.4,1.1-8.9,2.9l0.6-0.8c0.1-0.1,0-0.2,0-0.2c-0.1-0.1-0.2,0-0.2,0
	l-1.2,1.7l0,0c-2.1,1.7-3.7,4-4.6,6.6c-0.3,0-0.6,0-0.9,0c-1.2,0-2.4,0.2-3.5,0.6c-0.2-0.3-0.3-0.6-0.5-1c1.3-0.2,2.4-0.8,3.5-1.6
	c0.8-0.6,1.4-1.5,1.5-2.6c0.2-1.1-0.1-2.2-0.6-2.9c-0.6-0.8-1.8-1.5-3.2-1.3c-1,0.1-2.3,0.7-3.3,3c-0.5,1.1-0.5,2.4-0.1,3.7
	c-0.3-0.1-0.6-0.2-0.9-0.4c-1.5-0.7-3-1.6-2.8-2.9c0.1-0.4-0.2-0.8-0.7-0.8c-0.4-0.1-0.8,0.2-0.8,0.7c-0.3,2.6,2.4,3.9,3.7,4.5
	c0.8,0.4,1.5,0.6,2.1,0.7c0.2,0.6,0.5,1.1,0.8,1.6c-3.2,1.7-5.4,5.2-5.4,9.1c0,1.2,0.2,2.3,0.6,3.4h61c0.2-0.8,0.3-1.7,0.3-2.6
	c0-1.3-0.2-2.6-0.7-3.8C232.3,206.5,232.8,204.2,233,203.1z M173.7,211.4c-0.3,0.1-0.5,0.4-0.7,0.1c-0.2-0.3-0.5-0.2-0.2-0.4
	s0.4-0.3,0.4-0.3c0.3,0,0.6,0.1,0.6,0.2C173.9,211.1,174,211.3,173.7,211.4z M176,196.2c0.4-0.9,1-2,2.1-2.1c0.1,0,0.1,0,0.2,0
	c0.7,0,1.3,0.4,1.6,0.8c0.2,0.3,0.4,1,0.3,1.7c-0.1,0.4-0.3,1.1-0.9,1.6c-1.1,0.8-2.1,1.3-3.2,1.3
	C175.7,198.3,175.6,197.1,176,196.2z M183.2,211.9c-0.3,0.1-0.5,0.4-0.7,0.1s-0.5-0.2-0.2-0.4s0.4-0.3,0.4-0.3
	c0.3,0,0.6,0.1,0.6,0.2C183.3,211.6,183.5,211.8,183.2,211.9z M183.7,207.2l-5,3.8c-0.5,0.4-1.1,0.3-1.5-0.2l-1-1.3
	c-0.4-0.5-0.3-1.1,0.2-1.5l5-3.8c0.5-0.4,1.1-0.3,1.5,0.2l1,1.3C184.2,206.2,184.1,206.9,183.7,207.2z M184,205.3l-0.7-0.9
	c-0.1-0.1-0.1-0.3,0.1-0.4l0.6-0.4c0.1-0.1,0.3-0.1,0.4,0.1l0.7,0.9c0.1,0.1,0.1,0.3-0.1,0.4l-0.6,0.4
	C184.3,205.5,184.1,205.5,184,205.3z M185.1,213.2c-0.2,0.2-0.3,0.3-0.4,0.2c-0.1,0-0.2,0-0.2-0.3c0-0.2,0-0.4,0.2-0.4
	s0.3-0.2,0.3,0.1C185.1,213.1,185.1,213.2,185.1,213.2z M213.7,199.5l0.4-0.1c0.2,0,0.3-0.2,0.2-0.3l-0.1-0.4l0.3,0.1
	c0.2,0.1,0.3-0.1,0.3-0.2c0-0.2,0.2-0.3,0.4-0.2l1.3,1l-0.6,0.1l0.4,0.5l-0.3,0.1c-0.1,0-0.2,0.2-0.2,0.3l0.1,0.1
	c0.1,0.2,0,0.3-0.2,0.3l-0.4-0.1l0.5,0.6h-0.4c-0.1,0-0.1,0-0.1,0l-1.3-0.8c-0.2-0.1-0.2-0.3,0-0.5l0.2-0.2L213.7,199.5z M212.9,202
	c0-0.2,0-0.4,0.2-0.4s0.3-0.2,0.3,0.1s0,0.4,0,0.4c-0.2,0.2-0.3,0.3-0.4,0.2C213,202.2,212.8,202.2,212.9,202z M199.1,194.1l0.7-0.7
	c0.1-0.1,0.2-0.1,0.3,0l0.3,0.3c0.1,0.1,0.1,0.2,0,0.3l-0.7,0.7c-0.1,0.1-0.2,0.1-0.3,0l-0.3-0.3C199,194.3,199,194.2,199.1,194.1z
	 M195.4,196.4c0.1-0.3,0-0.1,0.1-0.2c0.1-0.1,0.1,0,0.4,0.2c0.3,0.2,0,0.2,0,0.4s-0.2,0.1-0.3,0.2c-0.1,0,0,0-0.1-0.2
	c0,0.1,0,0.1-0.2,0C195.1,196.4,195.3,196.7,195.4,196.4z M195.9,202c-0.2,0.2-0.3,0.3-0.4,0.2c-0.1,0-0.2,0-0.2-0.3
	c0-0.2,0-0.4,0.2-0.4s0.3-0.2,0.3,0.1C195.9,201.8,195.9,202,195.9,202z M194.3,204.1c0.1-0.2,0,0,0.6-0.2s0.3,0.2,0.6,0.4
	s-0.2,0.6-0.4,0.7s-0.3,0.2-0.5,0.1c-0.2-0.1-0.3-0.2-0.3-0.4c0,0,0,0-0.1-0.2C194.2,204.3,194.2,204.3,194.3,204.1z M189.4,194.5
	L189.4,194.5c0.1,0.1,0.1,0.2,0.1,0.2l-1.2,1.8c-0.1,0.1-0.2,0.1-0.2,0l0,0c-0.1-0.1-0.1-0.2,0-0.2L189.4,194.5L189.4,194.5z
	 M188,195.2l0.2-0.2c0.1-0.1,0.2-0.1,0.2,0c0.1,0.1,0.1,0.2,0,0.2l-0.2,0.2c-0.1,0.1-0.2,0.1-0.2,0C188,195.4,188,195.3,188,195.2z
	 M187.5,194.3c0.1,0.1,0.1,0.2,0,0.2l-0.2,0.2c-0.1,0.1-0.2,0.1-0.2,0c-0.1-0.1-0.1-0.2,0-0.2l0.2-0.2
	C187.3,194.3,187.4,194.3,187.5,194.3z M186,195.4l-0.1-0.1v-0.1l0.3-0.4c0.2-0.2,0.4-0.3,0.6-0.5c0.1-0.1,0.2-0.2,0.3-0.3l0,0l0,0
	l-0.9,1.3l-0.1,0.1C186.1,195.5,186,195.5,186,195.4z M187,196.1c-0.1-0.1-0.1-0.2,0-0.2l1.5-2.1c0.1-0.1,0.2-0.1,0.2,0
	c0.1,0.1,0.1,0.2,0,0.2l-1.5,2.1C187.1,196.1,187,196.2,187,196.1z M187.4,201.3c0.3-0.2,0.4-0.3,0.4-0.3c0.3,0,0.6,0.1,0.6,0.2
	c0,0.1,0.1,0.2-0.2,0.4c-0.3,0.1-0.5,0.4-0.7,0.1C187.4,201.5,187.2,201.6,187.4,201.3z M188.4,208.9c-0.1,0.1-0.3,0.2-0.5,0.1
	c-0.2-0.1-0.3-0.2-0.3-0.4c0,0,0,0-0.1-0.2s-0.1-0.3,0-0.4c0.1-0.2,0,0,0.6-0.2s0.3,0.2,0.6,0.4
	C189.1,208.4,188.6,208.9,188.4,208.9z M189,196.1c-0.1-0.1-0.1-0.2,0-0.2l0.2-0.2c0.1-0.1,0.2-0.1,0.2,0c0.1,0.1,0.1,0.2,0,0.2
	l-0.2,0.2C189.2,196.2,189.1,196.2,189,196.1z M191.2,211.7c0,0.3-0.1,0.3-0.3,0.4c-0.3,0.1-0.4,0-0.3-0.4c0.1-0.3,0-0.4,0.5-0.5
	C191.5,211.1,191.3,211.4,191.2,211.7z M190.2,196.6c-0.2,0.2-0.3,1.6-0.3,1.6c-0.7-0.5-0.6-1.8-0.4-2.1c0.2-0.3,1.4-0.8,2.1-0.4
	C191.6,195.8,190.4,196.4,190.2,196.6z M199.7,213.5c0,0.3-0.1,0.3-0.3,0.4c-0.3,0.1-0.4,0-0.3-0.4c0.1-0.3,0-0.4,0.5-0.5
	C200,212.9,199.8,213.2,199.7,213.5z M199.2,211.1l-4.3,1.5v-1.5h-1l0.8-1.4l-1.3-0.7l1.3-0.8l-1.8-1.1l4.8-1l-0.7,1.2h1.4l-0.7,1.2
	l1.9,0.4l-1.4,1.3h1.7L199.2,211.1z M201,203.5c0,0.3-0.1,0.3-0.3,0.4c-0.3,0.1-0.4,0-0.3-0.4c0.1-0.3,0-0.4,0.5-0.5
	C201.3,202.9,201.1,203.2,201,203.5z M206.1,209.5c-0.1,0-0.2,0.2-0.4,0s-0.5-0.3-0.3-0.6c0.2-0.2,0.1-0.5,0.3-0.3
	c0.3,0.2,0.4,0.3,0.4,0.3C206.3,209.2,206.2,209.5,206.1,209.5z M206.8,197.4l-2.4,2.2c-0.6,0.5-1.5,0.5-2-0.1l-2.5-2.7
	c-0.5-0.6-0.5-1.5,0.1-2l2.4-2.2c0.6-0.5,1.5-0.5,2,0.1l2.5,2.7C207.4,196,207.4,196.9,206.8,197.4z M207.3,191.6
	c-0.2,0.2-0.3,0.3-0.4,0.2c-0.1,0-0.2,0-0.2-0.3c0-0.2,0-0.4,0.2-0.4s0.3-0.2,0.3,0.1C207.4,191.5,207.3,191.6,207.3,191.6z
	 M208.4,211.7c-0.1,0.4-0.4,0.4-0.7,0c-0.3-0.3-0.4-0.3-0.2-0.9s0.5-0.1,0.7,0.2S208.5,211.3,208.4,211.7z M210.3,206.2
	c-0.1,0.4,0,0.8-0.4,0.8s-0.6,0.3-0.6-0.1c0-0.5,0.1-0.7,0.1-0.7c0.3-0.3,0.6-0.5,0.7-0.4C210.2,205.8,210.4,205.7,210.3,206.2z
	 M210.8,209.4c-0.1-0.3,0-1.6,0.7-2l1.2,2.7C212,210.5,210.9,209.8,210.8,209.4z M212.4,208.4c0.1,0,0.2,0,0.2,0.1l0.1,0.3
	c0,0.1,0,0.2-0.1,0.2s-0.2,0-0.2-0.1l-0.1-0.3C212.3,208.5,212.3,208.4,212.4,208.4z M213.6,209.8c-0.1,0-0.2,0-0.2-0.1l-1.1-2.3
	c0-0.1,0-0.2,0.1-0.2s0.2,0,0.2,0.1l1.1,2.3C213.8,209.6,213.7,209.7,213.6,209.8z M213.7,208.5c-0.1,0-0.2,0-0.2-0.1l-0.1-0.3
	c0-0.1,0-0.2,0.1-0.2s0.2,0,0.2,0.1l0.1,0.3C213.8,208.3,213.8,208.4,213.7,208.5z M214.7,209.3c-0.1,0-0.2,0-0.2-0.1l-1.1-2.3
	c0-0.1,0-0.2,0.1-0.2s0.2,0,0.2,0.1l1.1,2.3C214.8,209.1,214.8,209.3,214.7,209.3z M214.7,208c-0.1,0-0.2,0-0.2-0.1l-0.1-0.3
	c0-0.1,0-0.2,0.1-0.2s0.2,0,0.2,0.1l0.1,0.3C214.9,207.9,214.8,208,214.7,208z M215.7,208.8c-0.1,0-0.2,0-0.2-0.1l-1.1-2.3
	c0-0.1,0-0.2,0.1-0.2s0.2,0,0.2,0.1l1.1,2.3C215.9,208.7,215.8,208.8,215.7,208.8z M215.8,207.5c-0.1,0-0.2,0-0.2-0.1l-0.1-0.3
	c0-0.1,0-0.2,0.1-0.2s0.2,0,0.2,0.1l0.1,0.3C215.9,207.4,215.9,207.5,215.8,207.5z M216.7,208.1L216.7,208.1c-0.1,0-0.2,0-0.2-0.1
	l-0.9-2c0-0.1,0-0.2,0.1-0.2l0,0c0.1,0,0.2,0,0.2,0.1l0.9,2C216.8,208,216.8,208.1,216.7,208.1z M216.8,207.1c-0.1,0-0.2,0-0.2-0.1
	l-0.1-0.3c0-0.1,0-0.2,0.1-0.2s0.2,0,0.2,0.1l0.1,0.3C217,206.9,216.9,207,216.8,207.1z M218.9,213.4c-0.1,0-0.2,0.2-0.4,0
	s-0.5-0.3-0.3-0.6c0.2-0.2,0.1-0.5,0.3-0.3s0.4,0.3,0.4,0.3C219,213.1,219,213.3,218.9,213.4z M217.1,206.6c-0.1-0.3,0-1.6,0.7-2
	c0,0-0.1,1.4,0,1.6c0.1,0.3,1.3,1.1,1.3,1.1C218.3,207.7,217.2,206.9,217.1,206.6z M221.8,204.8c0,0.2-0.2,0.1-0.3,0.2
	c-0.1,0,0,0-0.1-0.2c0,0.1,0,0.1-0.2,0c-0.3-0.3,0,0,0.1-0.3s0-0.1,0.1-0.2c0.1-0.1,0.1,0,0.4,0.2
	C222.2,204.6,221.9,204.6,221.8,204.8z M226.1,212.9c0.1,0.4-0.6,0.4-0.7,0.3c-0.2,0-0.4,0-0.4-0.2c-0.1-0.2-0.1-0.3,0-0.5
	c0,0,0,0,0-0.3s0.1-0.2,0.3-0.3s0,0,0.6,0.3C226.5,212.5,226,212.6,226.1,212.9z M230.6,211.4c0,0.1-0.1,0.1-0.2,0.1
	c0.1-0.2,0.2-0.3,0.3-0.5C230.8,211.2,230.6,211.2,230.6,211.4z"/>
<path class="st5" d="M181.3,189.2c0,0-1.3-1.3,0-3.3c1.3-2.1,0-2.9,0-2.9"/>
<path class="st5" d="M191.9,186.1c0,0-1.3-1.3,0-3.3c1.3-2.1,0-2.9,0-2.9"/>
<path class="st5" d="M205.7,192.7c0,0-1.3-1.3,0-3.3c1.3-2.1,0-2.9,0-2.9"/>
<path class="st5" d="M212.7,185.8c0,0-1.3-1.3,0-3.3c1.3-2.1,0-2.9,0-2.9"/>
<path class="st5" d="M221.6,190.2c0,0-1.3-1.3,0-3.3s0-2.9,0-2.9"/>
<path class="st6" d="M184.7,48.5c-0.1-0.2-0.3-0.3-0.6-0.3H183l-1.3-5.3c-0.1-0.3-0.3-0.5-0.6-0.5h-2v-7.2c0-0.4-0.3-0.7-0.7-0.7
	h-2.6c-0.4,0-0.7,0.3-0.7,0.7v7.2h-0.8c-0.3,0-0.6,0.2-0.6,0.5l-0.9,3.9v-4.2c0-0.4-0.3-0.7-0.7-0.7H163v-3v-3.7
	c0-0.4-0.3-0.7-0.7-0.7h-9.8c-0.4,0-0.7,0.3-0.7,0.7v3h-9.2c-0.4,0-0.7,0.3-0.7,0.7v3.7v3.2h-2.8c-0.3,0-0.5,0.2-0.6,0.4
	s-0.1,0.5,0.1,0.7l7.1,7.7c0.1,0.1,0.3,0.2,0.5,0.2h34.2c0.2,0,0.4-0.1,0.5-0.3l3.5-5.3C184.8,49,184.8,48.7,184.7,48.5z
	 M177.7,35.8v1h-1.2v-1H177.7z M176.4,38.1h1.2v4.2h-1.2V38.1z M174.9,43.7h0.9h2.6h2.1l1.1,4.5h-7.8L174.9,43.7z M171.5,48.1h-3.3
	l-3.8-2.3c-0.1-0.1-0.2-0.1-0.3-0.1h-1v-2.6h8.5L171.5,48.1L171.5,48.1z M143.4,43.2h2.3l-0.8,2.4h-1.5V43.2z M147.1,43.2h1.9
	l-0.8,2.4h-1.9L147.1,43.2z M155.2,39.5L155.2,39.5L155.2,39.5h3.3l0,0l0,0h3.2v2.4h-8.5v-2.4H155.2z M158.8,35.8l-0.8,2.4h-1.9
	l0.8-2.4H158.8z M161.7,43.2v2.4h-2.3l0.8-2.4H161.7z M158,45.6h-1.9l0.8-2.4h1.9L158,45.6z M154.7,45.6h-1.5v-2.4h2.3L154.7,45.6z
	 M151.9,45.6h-2.3l0.8-2.4h1.5V45.6z M161.7,38.2h-2.3l0.8-2.4h1.5V38.2z M153.2,35.8h2.4l-0.8,2.4h-1.6
	C153.2,38.2,153.2,35.8,153.2,35.8z M143.4,39.5h8.5v2.4h-8.5V39.5z M180.2,53.4h-33.6l-5.9-6.4h23.1l3.8,2.3h0.1
	c0.1,0.1,0.2,0.1,0.3,0.1h4.1c0.1,0,0.2,0,0.3-0.1h0.6h9.5h0.4L180.2,53.4z"/>
<g>
	<path class="st6" d="M51.1,45.5c0.3,0.7,0.9,1.2,1.7,1.5c-0.3-0.6-0.6-1.2-0.9-1.9L51.1,45.5z"/>
	<path class="st6" d="M51.6,43.4l-0.7-0.1c0,0.1-0.1,0.3-0.1,0.4c0,0.3,0,0.6,0,0.9l0.7-0.4C51.5,44,51.5,43.7,51.6,43.4z"/>
	<path class="st6" d="M54.2,43.7c0.5,1.3,1.1,2.2,1.5,2.8c0.6-0.5,1.1-1.2,1.2-2c0-0.1,0-0.3,0-0.4L54.2,43.7z"/>
	<path class="st6" d="M56.8,41.3c-0.5-0.9-1.3-1.6-2.4-1.7c-1.6-0.2-3.1,0.8-3.4,2.4c0,0.1,0,0.2-0.1,0.3h-0.1
		c-0.2,0-0.4,0.1-0.5,0.4c0,0.2,0.1,0.4,0.4,0.5l1,0.1c0.1-0.2,0.3-0.3,0.6-0.4c0.2-0.1,0.3-0.1,0.5-0.1c0.4,0,0.7,0.1,0.9,0.4
		L56.8,41.3z"/>
	<path class="st6" d="M57.2,42.7c0-0.2,0-0.5-0.1-0.7l-2.5,1.5l2.5,0.3c0.2,0,0.4-0.1,0.5-0.4c0-0.2-0.1-0.4-0.4-0.5h-0.1
		C57.2,42.9,57.2,42.8,57.2,42.7z"/>
	<polygon class="st6" points="43.4,64.4 43.8,62.5 42.8,59.7 40.3,58.3 38.8,58.6 39,54.6 38.3,52 36.8,51.2 36.1,48.7 37.2,47.4 
		36.3,44.6 34.5,42.7 34.5,40.1 32.5,38.2 30.8,37.9 30.1,36.8 29.9,34.5 26.7,32.6 23.9,32.1 23.9,71.8 48.6,71.8 48,69 46.7,67.2 
		44.6,65.9 	"/>
	<path class="st6" d="M64.2,38.5c0.1-0.3,0.1-0.6,0-0.9l-0.1-0.1c-0.2-0.3-0.5-0.5-0.8-0.5c-1.7-2.6-3.8-4.3-5.2-4.2
		c1.2,0.8,2.8,2.5,4.3,4.9c-0.1,0.2-0.1,0.3,0,0.5L57,41.3l0.5,0.6l5.3-3c0.1,0.1,0.3,0.2,0.4,0.2c1.3,2.4,2,4.7,2,6.1
		C66,44,65.6,41.3,64.2,38.5z"/>
	<path class="st6" d="M50.9,45.6l-0.3-0.7l0,0l-2.7,1.6l-0.1-0.1c-0.4-0.5-1.1-0.5-1.5-0.1c-0.4,0.3-0.5,0.9-0.3,1.3l-2,1.1l0.4,0.7
		l2.1-1.2l2.8,3.4c0.2,0.3,0.5,0.4,0.8,0.4c0.2,0,0.3,0,0.5-0.1l2.6-1.2c0.9,1.6,1.4,3,0.9,5.2c-0.6-0.2-1.3-0.3-2.1-0.3
		c-0.6,0-1.3,0.1-2,0.4c-0.7,0.3-1.4,0.7-2,1.3c-1.2,1.2-2.1,3.1-2.7,5.8c-0.2,0.9,0.4,1.8,1.3,2c0.1,0,0.2,0,0.3,0
		c0.8,0,1.5-0.6,1.7-1.4c0.3-1.7,0.8-2.8,1.3-3.5s0.9-1,1.3-1.1C51.5,59,51.7,59,52,59c0.5,0,1,0.1,1.4,0.3s0.7,0.3,0.7,0.3l0,0l0,0
		c0.4,0.3,1,0.4,1.4,0.2c-0.2,0.7-0.3,1.6-0.3,2.5c0,2.5,0.8,5.7,3.4,9.1c0.3,0.4,0.8,0.7,1.4,0.7c0.4,0,0.7-0.1,1-0.3
		c0.7-0.6,0.9-1.6,0.3-2.4c-2.1-2.8-2.7-5.2-2.7-7c0-2.3,0.9-3.8,0.9-3.8l0,0c0.1-0.2,0.2-0.4,0.2-0.6v-0.1c0.9-3.6,1.4-5.7,0.8-9.3
		c0,0.2-0.1,0.4-0.1,0.5c-0.1,0.3-0.3,0.5-0.5,0.7c-0.3,0.3-0.6,0.5-1,0.7c-0.5,0.2-1,0.3-1.5,0.3l0,0c-1.1,0-2.2-0.5-3.1-1.4
		c-0.3-0.3-0.7-0.7-1-1.1h-0.1l-2.9,1.4l-2-2.4L50.9,45.6L50.9,45.6z"/>
	<path class="st6" d="M60.5,47.7c-0.1-0.5-0.6-1-1.2-1c-0.2,0-0.4,0.1-0.6,0.2l0,0c-0.7,0.2-1.5,0.3-2.2,0.5
		c0.5,0.5,0.9,0.5,1.1,0.5c0.1,0,0.2,0,0.3-0.1h0.2v0.1V48c-0.1,0.1-0.3,0.1-0.5,0.1c-0.3,0-0.8-0.1-1.5-0.7
		c-0.7-0.6-1.5-1.8-2.2-3.8C53.7,43,53,42.8,52.5,43c-0.6,0.2-0.8,0.9-0.6,1.4c0.9,2.2,1.8,3.6,2.7,4.5c1,0.9,2,1.4,3,1.4l0,0
		c0.5,0,1-0.1,1.4-0.3s0.7-0.4,1-0.7c0.2-0.2,0.3-0.4,0.4-0.6c0-0.1,0.1-0.2,0.1-0.3c0.1-0.2,0.1-0.3,0.1-0.5
		C60.5,47.8,60.5,47.7,60.5,47.7z"/>
</g>
<path class="st7" d="M109.1,55.6c0-8.1,11.1-14.6,24.8-14.6"/>
<path class="st8" d="M105.9,61.9c0-10.4,10-18.8,22.4-18.8"/>
<polyline class="st9" points="126.8,46.6 132,43.6 126.8,40 "/>
<path class="st8" d="M188.7,39c10.1-5.5,23-1.4,28.8,9.2"/>
<polyline class="st6" points="213.9,48.5 219,51.6 219.7,45.3 "/>
<path class="st10" d="M257.6,87.5c8.9,5.3,11,18.2,4.7,28.9"/>
<polyline class="st11" points="260,113.2 259.9,119.2 265.7,116.6 "/>
<path class="st12" d="M261.3,168c4,12.8-4.6,26.9-19.2,31.4"/>
<polyline class="st4" points="241.5,195.6 237.4,199.9 243.4,201.9 "/>
<path class="st8" d="M42.1,76.8c7.6,10.5,16.1,16.1,39.1,9.5"/>
<polyline class="st6" points="79.7,83.4 86,84.6 81.2,90 "/>
<path class="st13" d="M211.6,138.6c-14.5-10.9-38.1-3.8-52.8,15.8"/>
<polyline class="st3" points="162.1,155 156.6,157.4 156.8,151 "/>
<path class="st13" d="M212.1,129.6c-32.2-24.1-74-22.5-93.6,3.6"/>
<polyline class="st3" points="122.1,134 116.6,136.4 116.8,130 "/>
<path class="st8" d="M135.6,151.2c-3.5-37.8,23.1-71.1,59.5-74.5"/>
<polyline class="st6" points="193.3,79.8 198.2,76.4 192.7,73.3 "/>
<polyline class="st6" points="100.5,112.5 98.5,106.8 94,111.3 "/>
<line class="st8" x1="97.5" y1="110.7" x2="95.1" y2="122.7"/>
<g>
	<path class="st14" d="M128.6,75.3"/>
</g>
<g>
	<path class="st6" d="M127.6,88.4v-0.8h-1.5v-8.4H125v-1.3h-1v-5.7h-1.2v5.7h-1v1.3h-0.6v-1.3h-1v-5.7H119v5.7h-1v1.3h-2.5v-0.9
		h-4.7v0.9h-2.1v8.4h-1.5c0,0.3,0,0.5,0,0.8H127.6z M120.1,81.8h2.1v1h-2.1V81.8z M125.3,82.8h-2.1v-1h2.1V82.8z M117,81.8h2.1v1
		H117V81.8z M110.6,84.7h7.4v2.9h-7.4V84.7z"/>
	<path class="st6" d="M96.5,78.8h4.1l1.2-3.9h-0.1c0,0,0,0-0.1,0h-6.1c0,0,0,0-0.1,0h-0.1L96.5,78.8z"/>
	<path class="st6" d="M101.8,79.1l1,7.3v-2.5v-5.2c0.1,0.2,0.2,0.4,0.3,0.7c0.4,1.2,0.8,3.3,0.8,6.4c0,0.9,0,1.8-0.1,2.9
		c0,0.7,0.5,1.3,1.2,1.3c0,0,0,0,0.1,0c0.7,0,1.2-0.5,1.3-1.2c0.1-1.1,0.1-2.1,0.1-3c0-4.8-0.8-7.4-1.8-9c-0.5-0.8-1.1-1.3-1.7-1.6
		L101.8,79.1z"/>
	<path class="st6" d="M98.9,91.3v11c0,1.1,0.9,1.9,1.9,1.9c1.1,0,1.9-0.9,1.9-1.9v-12C102.2,90.7,100.8,91.2,98.9,91.3z"/>
	<path class="st6" d="M94.3,90.3v12c0,1.1,0.9,1.9,1.9,1.9c1.1,0,1.9-0.9,1.9-1.9v-11C96.4,91.2,95,90.7,94.3,90.3z"/>
	<path class="st6" d="M92.1,90c0.7,0,1.2-0.6,1.2-1.3c-0.1-1-0.1-2-0.1-2.9c0-3.8,0.6-6,1.1-7.1v5.2v2.5l1-7.3l-1.1-3.8
		c-0.8,0.4-1.8,1.3-2.4,3c-0.6,1.6-1.1,4-1.1,7.6c0,0.9,0,1.9,0.1,3C90.8,89.5,91.4,90,92.1,90L92.1,90z"/>
	<path class="st6" d="M99.2,73.9L99.2,73.9c0.2,0,0.3-0.1,0.4-0.1s0.2,0,0.2,0c0.5,0,0.9-0.3,1.1-0.7c0,0,0,0,0-0.1
		c0.5,0,1-0.4,1.1-0.9c0-0.1,0-0.2,0.1-0.3c0.4-0.2,0.7-0.6,0.7-1c0-0.2,0-0.4-0.1-0.5c0.2-0.2,0.3-0.5,0.3-0.8s-0.1-0.6-0.3-0.8
		c0.1-0.2,0.1-0.4,0.1-0.5c0-0.5-0.3-0.8-0.7-1c0-0.1,0-0.2-0.1-0.3c-0.2-0.5-0.6-0.9-1.1-0.9c0,0,0,0,0-0.1
		c-0.2-0.4-0.6-0.7-1.1-0.7c-0.1,0-0.3,0-0.4,0.1c-0.2-0.2-0.5-0.3-0.8-0.3s-0.6,0.1-0.8,0.3c-0.1-0.1-0.3-0.1-0.4-0.1
		c-0.5,0-0.9,0.3-1.1,0.7c0,0,0,0,0,0.1c-0.5,0-1,0.4-1.1,0.9c0,0.1,0,0.2-0.1,0.3c-0.4,0.2-0.7,0.6-0.7,1c0,0.2,0,0.4,0.1,0.5
		c-0.2,0.2-0.3,0.5-0.3,0.8s0.1,0.6,0.3,0.8c-0.1,0.2-0.1,0.4-0.1,0.5c0,0.5,0.3,0.8,0.7,1c0,0.1,0,0.2,0.1,0.3
		c0.2,0.5,0.6,0.9,1.1,0.9c0,0,0,0,0,0.1c0.2,0.4,0.6,0.7,1.1,0.7c0.1,0,0.2,0,0.2,0c0.1,0,0.3,0.1,0.4,0.1l0,0
		c0.2,0.1,0.4,0.2,0.6,0.2C98.8,74.1,99,74,99.2,73.9z M102,71.3c0.1-0.3,0.1-0.6,0.1-0.9C102.3,70.7,102.3,71.1,102,71.3z
		 M102.1,70.1c0-0.4-0.1-0.8-0.3-1.2C102.6,68.9,102.7,69.9,102.1,70.1z M96,67.8c-1-0.7,0.1-1.9,0.8-0.8c-0.7-1,0.9-1.7,1.1-0.5
		c-0.2-1.2,1.4-1.2,1.2,0c0.2-1.2,1.8-0.6,1.1,0.5c0.7-1,1.9,0.1,0.8,0.8c1-0.7,1.6,0.7,0.6,1.1c-0.6-1.2-1.8-2-3.2-2
		c-1.4,0-2.6,0.8-3.2,2C94.4,68.5,95,67.2,96,67.8z M95.4,68.9c-0.2,0.4-0.3,0.8-0.3,1.2C94.4,69.9,94.5,68.9,95.4,68.9z M95,70.4
		c0,0.3,0,0.6,0.1,0.9C94.9,71.1,94.8,70.7,95,70.4z"/>
	<path class="st6" d="M119.6,70.6c-0.1,0.1-0.2,0.3-0.2,0.4c0,0.4,0.3,0.7,0.7,0.7c0.4,0,0.7-0.3,0.7-0.7c0-0.1,0-0.2,0-0.2
		c-0.1,0-0.3,0.1-0.4,0.1C120.1,70.9,119.8,70.8,119.6,70.6z"/>
	<path class="st6" d="M121.4,69.1c-0.5-0.1-0.9-0.4-1.1-0.8c-0.2,0-0.4,0.1-0.5,0.2c-0.3,0.2-0.5,0.6-0.5,1c0,0.7,0.6,1.2,1.2,1.2
		c0.2,0,0.4,0,0.5-0.1c0.4-0.2,0.7-0.6,0.7-1.1c0-0.1,0-0.3-0.1-0.4C121.6,69.1,121.5,69.1,121.4,69.1z"/>
	<path class="st6" d="M121.4,68.7c0.8,0.1,1.5-0.4,1.7-1.2c0-0.2,0-0.4,0-0.6c-0.1-0.6-0.6-1-1.2-1.1l0,0c0.2-0.5,0.1-1.1-0.2-1.5
		c-0.5-0.8-1.6-1-2.4-0.4c-0.3,0.2-0.6,0.5-0.7,0.9c-0.2,0.5-0.1,1,0.2,1.5c0.5,0.8,1.6,1,2.4,0.4c0.2-0.2,0.4-0.4,0.5-0.6
		c-0.1,0.4-0.3,0.7-0.7,0.9c-0.3,0.2-0.6,0.3-0.9,0.3c0,0.1,0,0.2,0,0.2C120.3,68.2,120.7,68.6,121.4,68.7z"/>
	<path class="st6" d="M123.2,70.1c-0.2,0.1-0.4,0.4-0.4,0.7c0,0.5,0.4,0.8,0.8,0.8s0.8-0.4,0.8-0.8c0-0.1,0-0.2-0.1-0.4
		c-0.1,0-0.2,0-0.3,0C123.7,70.5,123.4,70.4,123.2,70.1z"/>
	<path class="st6" d="M125.3,69.1c-0.6-0.1-1.1-0.6-1.2-1.2c-0.2,0-0.4,0.1-0.6,0.2c-0.3,0.2-0.5,0.6-0.5,1c0,0.7,0.6,1.2,1.2,1.2
		c0.2,0,0.4,0,0.5-0.1C125.1,70,125.4,69.6,125.3,69.1L125.3,69.1C125.4,69.1,125.4,69.1,125.3,69.1z"/>
	<path class="st6" d="M125.3,68.7c0.8,0.1,1.5-0.4,1.7-1.2c0-0.2,0-0.4,0-0.6c-0.1-0.3-0.2-0.6-0.5-0.8c-0.1,0.2-0.3,0.4-0.5,0.6
		c-0.5,0.4-1.2,0.4-1.8,0.1c0,0.1,0,0.1,0,0.2c0,0.2,0,0.3,0,0.5C124.2,68.2,124.6,68.6,125.3,68.7z"/>
	<path class="st6" d="M123.6,66c0.5,0.8,1.6,1,2.4,0.4c0.2-0.2,0.4-0.4,0.5-0.6c0.3-0.6,0.3-1.3-0.1-1.8c-0.5-0.8-1.6-1-2.4-0.4
		c-0.3,0.2-0.6,0.5-0.7,0.9C123.2,65,123.3,65.6,123.6,66z"/>
	<circle class="st6" cx="122.1" cy="62.8" r="0.9"/>
	<circle class="st6" cx="118.5" cy="68.7" r="0.4"/>
	<circle class="st6" cx="125.8" cy="71" r="0.5"/>
	<circle class="st6" cx="120.3" cy="62.7" r="0.4"/>
</g>
<g>
	<path class="st11" d="M275.4,131.7c0-0.1-0.1-0.2-0.2-0.2s-0.2,0.1-0.2,0.2v3.5h-5.4v-3.5c0-0.1-0.1-0.2-0.2-0.2s-0.2,0.1-0.2,0.2
		v3.5h-1v2.1h0.4v0.3h1v-0.3h5.5v0.3h1v-0.3h0.4v-2.1h-1L275.4,131.7L275.4,131.7z M275.9,136.9h-7.3v-1.2h7.3V136.9z"/>
	<path class="st11" d="M223.2,160.5h47v1h6v-15.9c0-1-0.8-1.8-1.8-1.8H272c-1,0-1.8,0.8-1.8,1.8v12.1h-47v-12.1c0-1-0.8-1.8-1.8-1.8
		h-2.5c-1,0-1.8,0.8-1.8,1.8v15.9h6L223.2,160.5L223.2,160.5z"/>
	<path class="st11" d="M223.8,155.4c0,1,0.8,1.8,1.8,1.8h42.1c1,0,1.8-0.8,1.8-1.8v-1.7c0-1-0.8-1.8-1.8-1.8h-42.1
		c-1,0-1.8,0.8-1.8,1.8V155.4z"/>
	<ellipse transform="matrix(0.9495 -0.3139 0.3139 0.9495 -30.3224 79.2747)" class="st11" cx="231" cy="133.8" rx="3.3" ry="3.3"/>
	<path class="st11" d="M226.9,142.1c0.7,3.1,1.5,4.9,3.6,7.5c1.1,1.2,2.2,1.3,3.2,1c0.2,0,0.4-0.1,0.7-0.2l0,0l7-4l6.2,4.2
		c0.3,0.2,0.7,0.3,1,0.3c0.6,0,1.2-0.3,1.5-0.8c0.6-0.8,0.4-2-0.5-2.6l-7.2-4.9c-0.6-0.4-1.4-0.4-2-0.1l-6,3.4
		c-0.4-0.6-0.7-1.3-1-1.9c-1.1-0.2-2.2-0.5-3.2-1.1c-1-0.5-1.6-1.1-1.8-1.2c-0.6-0.6-0.6-1.5-0.1-2.1c0.3-0.3,0.7-0.5,1.1-0.5
		c0.4,0,0.7,0.1,1,0.4l0,0c0,0,0.1,0.1,0.2,0.2c0.2,0.1,0.5,0.3,0.9,0.6c0.1,0.1,0.3,0.1,0.4,0.2c0-0.1-0.1-0.3-0.1-0.4
		c-0.4-1.5-1.8-2.7-3.1-2.3C227.7,138.3,226.4,139.8,226.9,142.1z"/>
	<path class="st11" d="M235.5,144.2l0.2,0.4c0.1,0.1,0.3,0.2,0.4,0.1l1.6-1C237,143.9,236.3,144.1,235.5,144.2L235.5,144.2z"/>
	<path class="st11" d="M239.6,142.6l3.5-2c0.1-0.1,0.2-0.3,0.1-0.4l-0.2-0.3l1.8-7.4c0-0.2-0.1-0.3-0.2-0.4l-0.4-0.1
		c-0.2,0-0.3,0.1-0.4,0.2l-1.9,7.8l-2.2,1.3C239.9,141.8,239.8,142.3,239.6,142.6z"/>
	<path class="st11" d="M230.6,140.1c-0.1-0.1-0.2-0.1-0.2-0.2l0,0l0,0c-0.5-0.4-1.2-0.4-1.7,0.1c-0.4,0.5-0.4,1.2,0.1,1.7
		c0.1,0.1,0.7,0.6,1.7,1.2c1.1,0.6,2.6,1.1,4.4,1.1l0,0c1.2,0,2.5-0.2,3.9-0.8c0.6-0.3,0.9-1,0.6-1.6c-0.3-0.6-1-0.9-1.6-0.6
		c-1.1,0.5-2.1,0.6-3,0.7c-1.4,0-2.5-0.4-3.3-0.8C231.1,140.4,230.8,140.2,230.6,140.1z"/>
	<path class="st11" d="M226.3,146.5c-1.3,0-2.3,1-2.3,2.3v0.1c0,1.3,1,2.3,2.3,2.3h0.1c1.3,0,2.3-1,2.3-2.3v-0.1
		C228.7,147.5,227.6,146.5,226.3,146.5C226.4,146.5,226.3,146.5,226.3,146.5z"/>
	<rect x="265.9" y="138.2" class="st11" width="12.3" height="0.8"/>
	<rect x="269.1" y="136.1" class="st11" width="0.8" height="0.4"/>
	<rect x="270.3" y="136.1" class="st11" width="0.8" height="0.4"/>
	<rect x="271.5" y="136.1" class="st11" width="0.8" height="0.4"/>
	<rect x="274.6" y="136.1" class="st11" width="0.8" height="0.4"/>
	
		<rect x="257.1" y="136.7" transform="matrix(0.9525 -0.3047 0.3047 0.9525 -29.4571 85.0269)" class="st11" width="1.2" height="0.4"/>
	
		<rect x="251.1" y="138.6" transform="matrix(0.9524 -0.3048 0.3048 0.9524 -30.333 83.3201)" class="st11" width="1.2" height="0.4"/>
	
		<rect x="263" y="134.8" transform="matrix(0.9524 -0.3047 0.3047 0.9524 -28.6027 86.7358)" class="st11" width="1.2" height="0.4"/>
	
		<rect x="267" y="133.5" transform="matrix(0.9525 -0.3046 0.3046 0.9525 -28.0084 87.8578)" class="st11" width="1.2" height="0.4"/>
	
		<rect x="259.1" y="136.1" transform="matrix(0.9525 -0.3047 0.3047 0.9525 -29.1766 85.6102)" class="st11" width="1.2" height="0.4"/>
	
		<rect x="245.8" y="140.4" transform="matrix(0.9524 -0.3049 0.3049 0.9524 -31.1585 81.7133)" class="st11" width="0.5" height="0.4"/>
	
		<rect x="265" y="134.2" transform="matrix(0.9524 -0.3049 0.3049 0.9524 -28.3313 87.381)" class="st11" width="1.2" height="0.4"/>
	
		<rect x="249.1" y="139.2" transform="matrix(0.9524 -0.3049 0.3049 0.9524 -30.6193 82.7658)" class="st11" width="1.2" height="0.4"/>
	
		<rect x="247.2" y="139.9" transform="matrix(0.9524 -0.3048 0.3048 0.9524 -30.9082 82.1942)" class="st11" width="1.2" height="0.4"/>
	
		<rect x="255.1" y="137.3" transform="matrix(0.9523 -0.3053 0.3053 0.9523 -29.7712 84.6233)" class="st11" width="1.2" height="0.4"/>
	
		<rect x="253.1" y="138" transform="matrix(0.9523 -0.3053 0.3053 0.9523 -30.0802 84.0526)" class="st11" width="1.2" height="0.4"/>
	
		<rect x="261" y="135.4" transform="matrix(0.9525 -0.3047 0.3047 0.9525 -28.8823 86.1523)" class="st11" width="1.2" height="0.4"/>
	
		<rect x="252.8" y="129.6" transform="matrix(8.269581e-02 -0.9966 0.9966 8.269581e-02 102.3766 371.548)" class="st11" width="0.4" height="1.2"/>
	
		<rect x="248.6" y="129.3" transform="matrix(8.259717e-02 -0.9966 0.9966 8.259717e-02 98.8321 367.0945)" class="st11" width="0.4" height="1.2"/>
	
		<rect x="244.5" y="128.9" transform="matrix(8.249854e-02 -0.9966 0.9966 8.249854e-02 95.4758 362.6729)" class="st11" width="0.4" height="1.2"/>
	
		<rect x="246.6" y="129.1" transform="matrix(8.269581e-02 -0.9966 0.9966 8.269581e-02 97.1122 364.9568)" class="st11" width="0.4" height="1.2"/>
	
		<rect x="265.2" y="130.6" transform="matrix(8.259717e-02 -0.9966 0.9966 8.259717e-02 112.7155 384.903)" class="st11" width="0.4" height="1.2"/>
	
		<rect x="242.4" y="128.7" transform="matrix(8.269581e-02 -0.9966 0.9966 8.269581e-02 93.6536 360.4087)" class="st11" width="0.4" height="1.2"/>
	
		<rect x="250.7" y="129.4" transform="matrix(8.269581e-02 -0.9966 0.9966 8.269581e-02 100.5943 369.3163)" class="st11" width="0.4" height="1.2"/>
	
		<rect x="263.1" y="130.5" transform="matrix(8.230125e-02 -0.9966 0.9966 8.230125e-02 110.9959 382.7178)" class="st11" width="0.4" height="1.2"/>
	
		<rect x="267.3" y="130.8" transform="matrix(8.239990e-02 -0.9966 0.9966 8.239990e-02 114.5405 387.1698)" class="st11" width="0.4" height="1.2"/>
	
		<rect x="259" y="130.1" transform="matrix(8.269581e-02 -0.9966 0.9966 8.269581e-02 107.5356 378.2167)" class="st11" width="0.4" height="1.2"/>
	
		<rect x="254.9" y="129.8" transform="matrix(8.239990e-02 -0.9966 0.9966 8.239990e-02 104.1143 373.9085)" class="st11" width="0.4" height="1.2"/>
	
		<rect x="261.1" y="130.2" transform="matrix(8.269581e-02 -0.9966 0.9966 8.269581e-02 109.3178 380.4511)" class="st11" width="0.4" height="1.2"/>
	
		<rect x="256.9" y="129.9" transform="matrix(8.259717e-02 -0.9966 0.9966 8.259717e-02 105.7739 375.9997)" class="st11" width="0.4" height="1.2"/>
</g>
<path class="st6" d="M217.2,58l-10.6,17.5c-0.4,0.7-0.6,1.3-0.5,1.6c0,0.2,0.1,0.3,0.3,0.4l16.9,10c0.2,0.1,0.4,0.2,0.6,0.2h0.2
	c0.3,0,0.6-0.2,0.9-0.5c0.1,0,0.1-0.1,0.2-0.2c0.2-0.2,0.4-0.5,0.6-0.8l13-21.7c0.5-0.8,0.6-1.4,0.5-1.7c-0.1-0.2-0.3-0.4-0.8-0.5
	l-19.3-5.6c-0.1-0.1-0.3-0.1-0.4-0.1C218.3,56.6,217.7,57.1,217.2,58z M205.1,77.4c-0.2-0.6,0-1.4,0.6-2.3l10.6-17.5
	c1-1.6,2-2.2,3.1-1.7l19.3,5.6c0.7,0.2,1.2,0.6,1.4,1.1c0.3,0.7,0.1,1.5-0.5,2.6l-6,10l13.4,5.6c0.6,0.3,1,0.5,1.3,0.8
	c0.2,0.3,0.3,0.5,0.3,0.8c0,0.4-0.5,0.8-1.5,1.1l-19.5,5.8c-0.4,0.1-0.9,0.2-1.4,0.2c-0.8,0-1.5-0.2-2.3-0.6h-0.1
	c-0.3,0-0.7-0.1-1.1-0.4l-16.9-10C205.5,78.1,205.2,77.8,205.1,77.4z M247.6,82l-20.3,5.4c-0.4,0.1-0.9,0.2-1.3,0.2h-0.1
	c0,0,0,0,0,0.1l-0.3,0.3l-0.2,0.2c0.6,0.2,1.3,0.2,2,0l19.5-5.8C247.3,82.3,247.5,82.2,247.6,82L247.6,82z M246.6,81.5l-8.5-3.6
	l-2.8,0.7h-0.1h-0.1l-2.9-1.3l-1.3,2.1l8.8,4.2l7.3-1.9C247,81.6,246.8,81.6,246.6,81.5z"/>
<rect x="233.5" y="87.8" class="st15" width="18" height="8.5"/>
<text transform="matrix(-1 0 0 1 238.4473 92.8672)" class="st6 st16 st17">.</text>
<path class="st8" d="M236.9,92.1c0-2.6-4.9-4.8-11-4.8"/>
<text transform="matrix(1 0 0 1 241.9688 94.0391)" class="st0 st16 st18">$$</text>
</svg>
