<?xml version="1.0" encoding="utf-8"?>
<!-- Generator: Adobe Illustrator 21.0.0, SVG Export Plug-In . SVG Version: 6.00 Build 0)  -->
<svg version="1.1" id="Layer_1" xmlns="http://www.w3.org/2000/svg" xmlns:xlink="http://www.w3.org/1999/xlink" x="0px" y="0px"
	 viewBox="0 0 150 70" style="enable-background:new 0 0 150 70;" xml:space="preserve">
<style type="text/css">
	.st0{fill:#00A14B;}
</style>
<path class="st0" d="M87.6,63.2c0,2.7-2.2,4.8-4.8,4.8h-28c-2.7,0-4.8-2.2-4.8-4.8V8.9c-0.3-2.8,1.9-5,4.5-5h9.8L63.2,5l0.9,1.4
	h-3.6c-1.9,0-1.9,2.8,0,2.8h5.6l1.4,2H53v45.8h31.6V31c0.2,0.2,0.3,0.2,0.6,0.3c0.3,0.8,0.8,1.6,1.4,2.2l0.9,0.9V63.2"/>
<path class="st0" d="M89,27.7l2.5-2.5c0.8-0.8,2.2-0.8,3.1,0l6.1,6.1c0.8,0.8,0.8,2.2,0,3.1l-2.5,2.5c-0.9,0.9-2.3,0.9-3.1,0
	L89,30.8C88.1,29.9,88.1,28.5,89,27.7z"/>
<path class="st0" d="M89.3,11.3c-2.2-5.5,3.3-10.8,8.8-8.6l-2.5,2.5c-2.5,2.5,1.4,6.3,3.8,3.8l2.5-2.5c2.2,5.5-3.3,10.8-8.8,8.8
	L87,21.3l1.4,1.4l0.9-0.9c0.5-0.5,1.4-0.5,1.9,0l0,0c0.5,0.5,0.5,1.4,0,1.9l-3.8,3.8c-0.5,0.5-1.4,0.5-1.9,0l0,0
	c-0.5-0.6-0.5-1.4,0-1.9l1.1-1.1L85.2,23L79,29.3c2.2,5.5-3.3,10.8-8.8,8.8l2.5-2.5c2.5-2.5-1.3-6.3-3.8-3.8l-2.5,2.5
	c-2.2-5.5,3.3-10.8,8.8-8.8l6.3-6.3l-6.4-6.4l-2.8-1.3l-4.4-5.9l1.7-1.7l5.9,4.2l1.3,2.8l6.4,6.4L89.3,11.3z"/>
<path class="st0" d="M76.2,3.9h6.1c1.4,0,2.5,0.5,3.4,1.4c-0.6,1.4-0.8,3.1-0.6,4.7l-1.3,1.3h-1.4l-2.5-2.5l-1.4-3.1L76.2,3.9z"/>
<path class="st0" d="M65.5,59.6h5.8c4.1,0,4.1,6.1,0,6.1h-5.8C61.5,65.5,61.5,59.6,65.5,59.6z"/>
</svg>
