<?xml version="1.0" encoding="utf-8"?>
<!-- Generator: Adobe Illustrator 21.0.0, SVG Export Plug-In . SVG Version: 6.00 Build 0)  -->
<svg version="1.1" id="Layer_1" xmlns="http://www.w3.org/2000/svg" xmlns:xlink="http://www.w3.org/1999/xlink" x="0px" y="0px"
	 viewBox="0 0 150 70" style="enable-background:new 0 0 150 70;" xml:space="preserve">
<style type="text/css">
	.st0{fill:#F26522;}
	.st1{fill:#FFFFFF;stroke:#F26522;stroke-miterlimit:10;}
	.st2{font-family:'ArialMT';}
	.st3{font-size:19.6316px;}
	.st4{fill:none;stroke:#F26522;stroke-miterlimit:10;}
	.st5{fill:#231F20;}
	.st6{font-size:9.9253px;}
</style>
<path class="st0" d="M59.3,4.5L41.6,33.6c-0.7,1.2-1,2.2-0.8,2.7c0,0.3,0.2,0.5,0.5,0.7l28.1,16.6c0.3,0.2,0.7,0.3,1,0.3h0.3
	c0.5,0,1-0.3,1.5-0.8c0.2,0,0.2-0.2,0.3-0.3c0.3-0.3,0.7-0.8,1-1.3l21.6-36.1c0.8-1.3,1-2.3,0.8-2.8c-0.2-0.3-0.5-0.7-1.3-0.8
	L62.6,2.3c-0.2-0.2-0.5-0.2-0.7-0.2C61.1,2.2,60.1,3,59.3,4.5z M39.1,36.8c-0.3-1,0-2.3,1-3.8L57.8,3.8C59.5,1.2,61.1,0.2,63,1
	l32.1,9.3c1.2,0.3,2,1,2.3,1.8c0.5,1.2,0.2,2.5-0.8,4.3l-10,16.6l22.3,9.3c1,0.5,1.7,0.8,2.2,1.3c0.3,0.5,0.5,0.8,0.5,1.3
	c0,0.7-0.8,1.3-2.5,1.8l-32.5,9.7c-0.7,0.2-1.5,0.3-2.3,0.3c-1.3,0-2.5-0.3-3.8-1h-0.2c-0.5,0-1.2-0.2-1.8-0.7L40.3,38.6
	C39.8,38,39.3,37.5,39.1,36.8z M109.9,44.5l-33.8,9c-0.7,0.2-1.5,0.3-2.2,0.3h-0.2c0,0,0,0,0,0.2l-0.5,0.5l-0.3,0.3
	c1,0.3,2.2,0.3,3.3,0l32.5-9.7C109.4,45,109.7,44.8,109.9,44.5L109.9,44.5z M108.2,43.6l-14.2-6l-4.7,1.2h-0.2h-0.2l-4.8-2.2
	l-2.2,3.5l14.7,7l12.2-3.2C108.9,43.8,108.6,43.8,108.2,43.6z"/>
<rect x="86.5" y="54.2" class="st1" width="30" height="14.2"/>
<text transform="matrix(-1 0 0 1 94.6709 62.5615)" class="st0 st2 st3">.</text>
<path class="st4" d="M92.1,61.3c0-4.3-8.2-8-18.3-8"/>
<text transform="matrix(1 0 0 1 101.4621 64.7537)" class="st5 st2 st6">$$</text>
</svg>
