<?xml version="1.0" encoding="utf-8"?>
<!-- Generator: Adobe Illustrator 21.0.0, SVG Export Plug-In . SVG Version: 6.00 Build 0)  -->
<svg version="1.1" id="Layer_1" xmlns="http://www.w3.org/2000/svg" xmlns:xlink="http://www.w3.org/1999/xlink" x="0px" y="0px"
	 viewBox="0 0 150 70" style="enable-background:new 0 0 150 70;" xml:space="preserve">
<style type="text/css">
	.st0{fill:#231F20;}
	.st1{font-family:'NewsCycle';}
	.st2{font-size:19.7466px;}
	.st3{fill:#7F3F98;}
</style>
<text transform="matrix(1 0 0 1 -0.1523 62.3447)" class="st0 st1 st2">Use</text>
<g>
	<path class="st3" d="M144.7,7.7c0-0.2-0.2-0.4-0.4-0.4c-0.2,0-0.4,0.2-0.4,0.4V14h-9.7V7.7c0-0.2-0.2-0.4-0.4-0.4
		c-0.2,0-0.4,0.2-0.4,0.4V14h-1.8v3.8h0.7v0.5h1.8v-0.5h9.9v0.5h1.8v-0.5h0.7V14h-1.8L144.7,7.7L144.7,7.7z M145.6,17h-13.1v-2.2
		h13.1V17z"/>
	<path class="st3" d="M51,59.4h84.4v1.8h10.8V32.7c0-1.8-1.4-3.2-3.2-3.2h-4.3c-1.8,0-3.2,1.4-3.2,3.2v21.7H51V32.7
		c0-1.8-1.4-3.2-3.2-3.2h-4.5c-1.8,0-3.2,1.4-3.2,3.2v28.5h10.8v-1.8H51z"/>
	<path class="st3" d="M52.1,50.2c0,1.8,1.4,3.2,3.2,3.2h75.6c1.8,0,3.2-1.4,3.2-3.2v-3.1c0-1.8-1.4-3.2-3.2-3.2H55.3
		c-1.8,0-3.2,1.4-3.2,3.2V50.2z"/>
	<ellipse transform="matrix(0.9495 -0.3139 0.3139 0.9495 -0.3116 21.0005)" class="st3" cx="65.1" cy="11.5" rx="5.9" ry="5.9"/>
	<path class="st3" d="M57.7,26.4c1.3,5.6,2.7,8.8,6.5,13.5c2,2.2,3.9,2.3,5.7,1.8c0.4,0,0.7-0.2,1.3-0.4l0,0l12.6-7.2l11.1,7.5
		c0.5,0.4,1.3,0.5,1.8,0.5c1.1,0,2.2-0.5,2.7-1.4c1.1-1.4,0.7-3.6-0.9-4.7l-12.9-8.8c-1.1-0.7-2.5-0.7-3.6-0.2l-10.8,6.1
		c-0.7-1.1-1.3-2.3-1.8-3.4c-2-0.4-3.9-0.9-5.7-2c-1.8-0.9-2.9-2-3.2-2.2c-1.1-1.1-1.1-2.7-0.2-3.8c0.5-0.5,1.3-0.9,2-0.9
		c0.7,0,1.3,0.2,1.8,0.7l0,0c0,0,0.2,0.2,0.4,0.4c0.4,0.2,0.9,0.5,1.6,1.1c0.2,0.2,0.5,0.2,0.7,0.4c0-0.2-0.2-0.5-0.2-0.7
		c-0.7-2.7-3.2-4.8-5.6-4.1C59.1,19.5,56.8,22.2,57.7,26.4z"/>
	<path class="st3" d="M73.1,30.1l0.4,0.7c0.2,0.2,0.5,0.4,0.7,0.2l2.9-1.8C75.8,29.6,74.5,30,73.1,30.1L73.1,30.1z"/>
	<path class="st3" d="M80.5,27.3l6.3-3.6c0.2-0.2,0.4-0.5,0.2-0.7l-0.4-0.5l3.2-13.3c0-0.4-0.2-0.5-0.4-0.7l-0.7-0.2
		c-0.4,0-0.5,0.2-0.7,0.4l-3.4,14l-3.9,2.3C81,25.8,80.8,26.7,80.5,27.3z"/>
	<path class="st3" d="M64.3,22.8c-0.2-0.2-0.4-0.2-0.4-0.4l0,0l0,0c-0.9-0.7-2.2-0.7-3.1,0.2c-0.7,0.9-0.7,2.2,0.2,3.1
		c0.2,0.2,1.3,1.1,3.1,2.2c2,1.1,4.7,2,7.9,2l0,0c2.2,0,4.5-0.4,7-1.4c1.1-0.5,1.6-1.8,1.1-2.9c-0.5-1.1-1.8-1.6-2.9-1.1
		c-2,0.9-3.8,1.1-5.4,1.3c-2.5,0-4.5-0.7-5.9-1.4C65.2,23.3,64.7,23,64.3,22.8z"/>
	<path class="st3" d="M56.6,34.3c-2.3,0-4.1,1.8-4.1,4.1v0.2c0,2.3,1.8,4.1,4.1,4.1h0.2c2.3,0,4.1-1.8,4.1-4.1v-0.2
		C60.9,36.1,58.9,34.3,56.6,34.3C56.8,34.3,56.6,34.3,56.6,34.3z"/>
	<rect x="127.7" y="19.4" class="st3" width="22.1" height="1.4"/>
	<rect x="133.4" y="15.6" class="st3" width="1.4" height="0.7"/>
	<rect x="135.6" y="15.6" class="st3" width="1.4" height="0.7"/>
	<rect x="137.7" y="15.6" class="st3" width="1.4" height="0.7"/>
	<rect x="143.3" y="15.6" class="st3" width="1.4" height="0.7"/>
	<rect x="111.9" y="16.7" transform="matrix(0.9525 -0.3047 0.3047 0.9525 0.1834 35.2285)" class="st3" width="2.2" height="0.7"/>
	
		<rect x="101.1" y="20.1" transform="matrix(0.9524 -0.3048 0.3048 0.9524 -1.3749 32.1139)" class="st3" width="2.2" height="0.7"/>
	<rect x="122.4" y="13.3" transform="matrix(0.9524 -0.3047 0.3047 0.9524 1.7207 38.284)" class="st3" width="2.2" height="0.7"/>
	<rect x="129.6" y="10.9" transform="matrix(0.9525 -0.3046 0.3046 0.9525 2.7734 40.3488)" class="st3" width="2.2" height="0.7"/>
	<rect x="115.5" y="15.6" transform="matrix(0.9525 -0.3047 0.3047 0.9525 0.6869 36.2756)" class="st3" width="2.2" height="0.7"/>
	<rect x="91.6" y="23.3" transform="matrix(0.9524 -0.3049 0.3049 0.9524 -2.8463 29.1911)" class="st3" width="0.9" height="0.7"/>
	<rect x="126.1" y="12.2" transform="matrix(0.9524 -0.3049 0.3049 0.9524 2.229 39.3654)" class="st3" width="2.2" height="0.7"/>
	<rect x="97.5" y="21.2" transform="matrix(0.9524 -0.3049 0.3049 0.9524 -1.8783 31.0806)" class="st3" width="2.2" height="0.7"/>
	<rect x="94.1" y="22.4" transform="matrix(0.9524 -0.3048 0.3048 0.9524 -2.4075 30.0927)" class="st3" width="2.2" height="0.7"/>
	<rect x="108.3" y="17.8" transform="matrix(0.9523 -0.3053 0.3053 0.9523 -0.31 34.2493)" class="st3" width="2.2" height="0.7"/>
	<rect x="104.7" y="19" transform="matrix(0.9523 -0.3053 0.3053 0.9523 -0.8647 33.2248)" class="st3" width="2.2" height="0.7"/>
	<rect x="118.9" y="14.4" transform="matrix(0.9525 -0.3047 0.3047 0.9525 1.2153 37.2487)" class="st3" width="2.2" height="0.7"/>
	
		<rect x="104.2" y="3.9" transform="matrix(8.269581e-02 -0.9966 0.9966 8.269581e-02 90.9856 108.7266)" class="st3" width="0.7" height="2.2"/>
	
		<rect x="96.6" y="3.3" transform="matrix(8.259717e-02 -0.9966 0.9966 8.259717e-02 84.5902 100.7065)" class="st3" width="0.7" height="2.2"/>
	
		<rect x="89.3" y="2.6" transform="matrix(8.249854e-02 -0.9966 0.9966 8.249854e-02 78.5326 92.7436)" class="st3" width="0.7" height="2.2"/>
	
		<rect x="93" y="3.1" transform="matrix(8.269581e-02 -0.9966 0.9966 8.269581e-02 81.5353 96.8944)" class="st3" width="0.7" height="2.2"/>
	
		<rect x="126.5" y="5.8" transform="matrix(8.259717e-02 -0.9966 0.9966 8.259717e-02 109.5129 132.6755)" class="st3" width="0.7" height="2.2"/>
	
		<rect x="85.5" y="2.4" transform="matrix(8.269581e-02 -0.9966 0.9966 8.269581e-02 75.3267 88.7299)" class="st3" width="0.7" height="2.2"/>
	
		<rect x="100.4" y="3.6" transform="matrix(8.269581e-02 -0.9966 0.9966 8.269581e-02 87.7861 104.7204)" class="st3" width="0.7" height="2.2"/>
	
		<rect x="122.7" y="5.5" transform="matrix(8.230125e-02 -0.9966 0.9966 8.230125e-02 106.3282 128.6764)" class="st3" width="0.7" height="2.2"/>
	
		<rect x="130.2" y="6.1" transform="matrix(8.239990e-02 -0.9966 0.9966 8.239990e-02 112.7238 136.6938)" class="st3" width="0.7" height="2.2"/>
	
		<rect x="115.3" y="4.8" transform="matrix(8.269581e-02 -0.9966 0.9966 8.269581e-02 100.2469 120.6979)" class="st3" width="0.7" height="2.2"/>
	
		<rect x="107.9" y="4.3" transform="matrix(8.239990e-02 -0.9966 0.9966 8.239990e-02 94.0072 112.8879)" class="st3" width="0.7" height="2.2"/>
	
		<rect x="119.1" y="5.1" transform="matrix(8.269581e-02 -0.9966 0.9966 8.269581e-02 103.4463 124.709)" class="st3" width="0.7" height="2.2"/>
	
		<rect x="111.5" y="4.6" transform="matrix(8.259717e-02 -0.9966 0.9966 8.259717e-02 97.0517 116.6926)" class="st3" width="0.7" height="2.2"/>
</g>
</svg>
